<svg xmlns="http://www.w3.org/2000/svg" width="231.88" height="35" viewBox="0 0 231.88 35"><rect class="svg__rect" x="0" y="0" width="76.5" height="35" fill="#31C4F3"/><rect class="svg__rect" x="74.5" y="0" width="157.38" height="35" fill="#389AD5"/><path class="svg__text" d="M16.25 14.66L13.61 14.66L13.61 13.47L20.38 13.47L20.38 14.66L17.72 14.66L17.72 22L16.25 22L16.25 14.66ZM23.87 18.00L23.87 18.00L23.87 17.52Q23.87 16.28 24.31 15.32Q24.75 14.37 25.56 13.86Q26.36 13.35 27.41 13.35Q28.45 13.35 29.26 13.85Q30.06 14.35 30.50 15.29Q30.94 16.23 30.95 17.48L30.95 17.48L30.95 17.96Q30.95 19.21 30.51 20.16Q30.08 21.10 29.27 21.61Q28.47 22.12 27.42 22.12L27.42 22.12Q26.38 22.12 25.57 21.61Q24.76 21.10 24.32 20.17Q23.87 19.23 23.87 18.00ZM25.35 17.46L25.35 17.96Q25.35 19.36 25.90 20.13Q26.45 20.90 27.42 20.90L27.42 20.90Q28.40 20.90 28.93 20.15Q29.46 19.40 29.46 17.96L29.46 17.96L29.46 17.51Q29.46 16.09 28.93 15.34Q28.39 14.58 27.41 14.58L27.41 14.58Q26.45 14.58 25.90 15.33Q25.36 16.09 25.35 17.46L25.35 17.46ZM35.14 18.00L35.14 18.00L35.14 17.52Q35.14 16.28 35.58 15.32Q36.03 14.37 36.83 13.86Q37.64 13.35 38.68 13.35Q39.72 13.35 40.53 13.85Q41.33 14.35 41.77 15.29Q42.21 16.23 42.22 17.48L42.22 17.48L42.22 17.96Q42.22 19.21 41.79 20.16Q41.35 21.10 40.55 21.61Q39.74 22.12 38.69 22.12L38.69 22.12Q37.65 22.12 36.84 21.61Q36.03 21.10 35.59 20.17Q35.15 19.23 35.14 18.00ZM36.62 17.46L36.62 17.96Q36.62 19.36 37.17 20.13Q37.72 20.90 38.69 20.90L38.69 20.90Q39.68 20.90 40.21 20.15Q40.74 19.40 40.74 17.96L40.74 17.96L40.74 17.51Q40.74 16.09 40.20 15.34Q39.66 14.58 38.68 14.58L38.68 14.58Q37.72 14.58 37.18 15.33Q36.64 16.09 36.62 17.46L36.62 17.46ZM52.04 22L46.68 22L46.68 13.47L48.17 13.47L48.17 20.82L52.04 20.82L52.04 22ZM55.73 19.42L55.73 19.42L57.21 19.42Q57.21 20.15 57.69 20.55Q58.17 20.95 59.07 20.95L59.07 20.95Q59.84 20.95 60.23 20.63Q60.62 20.32 60.62 19.80L60.62 19.80Q60.62 19.24 60.23 18.94Q59.83 18.63 58.80 18.32Q57.77 18.01 57.16 17.63L57.16 17.63Q55.99 16.90 55.99 15.72L55.99 15.72Q55.99 14.69 56.84 14.02Q57.68 13.35 59.02 13.35L59.02 13.35Q59.91 13.35 60.61 13.68Q61.30 14.01 61.70 14.61Q62.10 15.22 62.10 15.96L62.10 15.96L60.62 15.96Q60.62 15.29 60.20 14.91Q59.79 14.54 59.01 14.54L59.01 14.54Q58.28 14.54 57.88 14.85Q57.48 15.16 57.48 15.71L57.48 15.71Q57.48 16.18 57.91 16.50Q58.34 16.81 59.34 17.10Q60.34 17.40 60.94 17.78Q61.54 18.16 61.82 18.65Q62.11 19.13 62.11 19.79L62.11 19.79Q62.11 20.86 61.29 21.49Q60.47 22.12 59.07 22.12L59.07 22.12Q58.14 22.12 57.37 21.77Q56.59 21.43 56.16 20.83Q55.73 20.22 55.73 19.42Z" fill="#FFFFFF"/><path class="svg__text" d="M91.07 22L88.69 22L88.69 13.60L92.53 13.60Q93.67 13.60 94.51 13.98Q95.35 14.35 95.81 15.06Q96.26 15.76 96.26 16.71L96.26 16.71Q96.26 17.62 95.84 18.30Q95.41 18.98 94.62 19.36L94.62 19.36L96.43 22L93.89 22L92.36 19.77L91.07 19.77L91.07 22ZM91.07 15.47L91.07 17.93L92.39 17.93Q93.12 17.93 93.49 17.61Q93.86 17.29 93.86 16.71L93.86 16.71Q93.86 16.12 93.49 15.79Q93.12 15.47 92.39 15.47L92.39 15.47L91.07 15.47ZM107.80 22L101.05 22L101.05 13.60L107.64 13.60L107.64 15.44L103.41 15.44L103.41 16.85L107.14 16.85L107.14 18.63L103.41 18.63L103.41 20.17L107.80 20.17L107.80 22ZM114.02 22L111.59 22L115.30 13.60L117.64 13.60L121.36 22L118.89 22L118.23 20.37L114.68 20.37L114.02 22ZM116.46 15.93L115.37 18.61L117.53 18.61L116.46 15.93ZM125.09 17.80L125.09 17.80Q125.09 16.54 125.68 15.54Q126.28 14.55 127.33 13.99Q128.39 13.43 129.70 13.43L129.70 13.43Q130.86 13.43 131.78 13.84Q132.70 14.25 133.32 15.02L133.32 15.02L131.81 16.39Q130.99 15.40 129.83 15.40L129.83 15.40Q129.14 15.40 128.61 15.70Q128.07 16 127.78 16.54Q127.48 17.09 127.48 17.80L127.48 17.80Q127.48 18.51 127.78 19.05Q128.07 19.60 128.61 19.90Q129.14 20.20 129.83 20.20L129.83 20.20Q130.99 20.20 131.81 19.22L131.81 19.22L133.32 20.58Q132.71 21.35 131.78 21.76Q130.86 22.17 129.70 22.17L129.70 22.17Q128.39 22.17 127.33 21.61Q126.28 21.05 125.68 20.05Q125.09 19.06 125.09 17.80ZM139.65 15.48L137.06 15.48L137.06 13.60L144.59 13.60L144.59 15.48L142.02 15.48L142.02 22L139.65 22L139.65 15.48ZM158.26 22L155.93 22L155.93 13.60L157.89 13.60L161.60 18.07L161.60 13.60L163.92 13.60L163.92 22L161.97 22L158.26 17.52L158.26 22ZM170.50 22L168.08 22L171.79 13.60L174.13 13.60L177.84 22L175.38 22L174.72 20.37L171.16 20.37L170.50 22ZM172.94 15.93L171.86 18.61L174.02 18.61L172.94 15.93ZM183.79 15.48L181.21 15.48L181.21 13.60L188.73 13.60L188.73 15.48L186.16 15.48L186.16 22L183.79 22L183.79 15.48ZM195.48 22L193.10 22L193.10 13.60L195.48 13.60L195.48 22ZM203.24 22L199.65 13.60L202.22 13.60L204.50 19.07L206.82 13.60L209.17 13.60L205.58 22L203.24 22ZM220.07 22L213.33 22L213.33 13.60L219.92 13.60L219.92 15.44L215.68 15.44L215.68 16.85L219.42 16.85L219.42 18.63L215.68 18.63L215.68 20.17L220.07 20.17L220.07 22Z" fill="#FFFFFF" x="87.5"/></svg>